<svg id="Icons" height="512" viewBox="0 0 74 74" width="512" xmlns="http://www.w3.org/2000/svg"><path d="m45.19 72h-2.97a1 1 0 0 1 0-2h2.97a1 1 0 0 1 0 2z"/><path d="m69 72h-16.81a1 1 0 0 1 0-2h16.81a1 1 0 0 0 1-1v-64a1 1 0 0 0 -1-1h-64a1 1 0 0 0 -1 1v64a1 1 0 0 0 1 1h20.32a1 1 0 0 1 0 2h-20.32a3 3 0 0 1 -3-3v-64a3 3 0 0 1 3-3h64a3 3 0 0 1 3 3v64a3 3 0 0 1 -3 3z"/><path d="m35.22 72h-2.9a1 1 0 1 1 0-2h2.9a1 1 0 0 1 0 2z"/><path d="m71 20.01h-68a1 1 0 0 1 0-2h68a1 1 0 0 1 0 2z"/><path d="m62.369 14.672a3.672 3.672 0 1 1 3.673-3.672 3.676 3.676 0 0 1 -3.673 3.672zm0-5.344a1.672 1.672 0 1 0 1.673 1.672 1.674 1.674 0 0 0 -1.673-1.672z"/><path d="m52.542 14.672a3.672 3.672 0 1 1 3.672-3.672 3.677 3.677 0 0 1 -3.672 3.672zm0-5.344a1.672 1.672 0 1 0 1.672 1.672 1.674 1.674 0 0 0 -1.672-1.672z"/><path d="m42.714 14.672a3.672 3.672 0 1 1 3.673-3.672 3.676 3.676 0 0 1 -3.673 3.672zm0-5.344a1.672 1.672 0 1 0 1.673 1.672 1.674 1.674 0 0 0 -1.673-1.672z"/><path d="m33.5 12h-24.542a1 1 0 1 1 0-2h24.542a1 1 0 0 1 0 2z"/><path d="m20.288 35.854a5.427 5.427 0 1 1 5.428-5.427 5.434 5.434 0 0 1 -5.428 5.427zm0-8.854a3.427 3.427 0 1 0 3.428 3.427 3.431 3.431 0 0 0 -3.428-3.427z"/><path d="m29.358 48.562h-18.14a1 1 0 0 1 -1-1v-4.286a5.6 5.6 0 0 1 5.589-5.589h8.963a5.594 5.594 0 0 1 5.588 5.589v4.286a1 1 0 0 1 -1 1zm-17.14-2h16.14v-3.286a3.593 3.593 0 0 0 -3.588-3.589h-8.963a3.593 3.593 0 0 0 -3.589 3.589z"/><path d="m24.832 48.562h-9.088a1 1 0 0 1 -1-1v-3.162a1 1 0 0 1 2 0v2.165h7.088v-2.165a1 1 0 0 1 2 0v3.165a1 1 0 0 1 -1 .997z"/><path d="m63 30.479h-26a1 1 0 0 1 0-2h26a1 1 0 0 1 0 2z"/><path d="m63 38.9h-26a1 1 0 0 1 0-2h26a1 1 0 0 1 0 2z"/><path d="m63 47.326h-26a1 1 0 0 1 0-2h26a1 1 0 0 1 0 2z"/><path d="m63 55.749h-52a1 1 0 1 1 0-2h52a1 1 0 0 1 0 2z"/><path d="m63 64.172h-52a1 1 0 0 1 0-2h52a1 1 0 0 1 0 2z"/></svg>