<svg id="Layer_1" enable-background="new 0 0 511.276 511.276" height="512" viewBox="0 0 511.276 511.276" width="512" xmlns="http://www.w3.org/2000/svg"><g><g><path d="m504.201 249.397c0 106.52-111.26 192.87-248.5 192.87-6.06 0-12.07-.17-18.02-.5-31.83-1.77-62.01-8.19-89.4-18.4-65.78 32.97-126.01 31.42-126.01 31.42 23.92-23.01 39.51-51.76 49.32-75.85-40.01-34.23-64.39-79.67-64.39-129.54 0-101.82 101.66-185.21 230.5-192.37 5.94-.33 11.95-.5 18-.5 137.24 0 248.5 86.35 248.5 192.87z" fill="#ff3e7a"/><path d="m504.201 249.397c0 106.52-111.26 192.87-248.5 192.87-6.06 0-12.07-.17-18.02-.5 128.85-7.15 230.52-90.54 230.52-192.37 0-101.82-101.66-185.21-230.5-192.37 5.94-.33 11.95-.5 18-.5 137.24 0 248.5 86.35 248.5 192.87z" fill="#b2006e"/><g><g><path d="m180.968 255.67c0 16.57-13.413 30-29.961 30-3.875 0-7.58-.74-10.986-2.09-11.116-4.38-18.976-15.22-18.976-27.91s7.86-23.53 18.976-27.91c3.406-1.35 7.111-2.09 10.986-2.09 16.548 0 29.961 13.43 29.961 30z" fill="#fff"/><path d="m180.968 255.67c0 16.57-13.413 30-29.961 30-3.875 0-7.58-.74-10.986-2.09 11.116-4.38 18.976-15.22 18.976-27.91s-7.86-23.53-18.976-27.91c3.406-1.35 7.111-2.09 10.986-2.09 16.548 0 29.961 13.43 29.961 30z" fill="#dcecf4"/></g><g><path d="m285.836 255.667c0 16.57-13.413 30-29.961 30-3.875 0-7.58-.74-10.986-2.09-11.116-4.38-18.976-15.22-18.976-27.91s7.86-23.53 18.976-27.91c3.406-1.35 7.111-2.09 10.986-2.09 16.548 0 29.961 13.43 29.961 30z" fill="#fff"/><path d="m285.836 255.667c0 16.57-13.413 30-29.961 30-3.875 0-7.58-.74-10.986-2.09 11.116-4.38 18.976-15.22 18.976-27.91s-7.86-23.53-18.976-27.91c3.406-1.35 7.111-2.09 10.986-2.09 16.548 0 29.961 13.43 29.961 30z" fill="#dcecf4"/></g><g><path d="m390.701 255.667c0 16.57-13.413 30-29.961 30-3.875 0-7.58-.74-10.986-2.09-11.116-4.38-18.976-15.22-18.976-27.91s7.86-23.53 18.976-27.91c3.406-1.35 7.111-2.09 10.986-2.09 16.548 0 29.961 13.43 29.961 30z" fill="#fff"/><path d="m390.701 255.667c0 16.57-13.413 30-29.961 30-3.875 0-7.58-.74-10.986-2.09 11.116-4.38 18.976-15.22 18.976-27.91s-7.86-23.53-18.976-27.91c3.406-1.35 7.111-2.09 10.986-2.09 16.548 0 29.961 13.43 29.961 30z" fill="#dcecf4"/></g></g></g><g><path d="m436.015 107.097c-64.209-51.187-164.831-69.93-249.215-50.736-4.047.882-6.613 4.877-5.731 8.925.882 4.047 4.873 6.616 8.925 5.731 140.845-33.573 307.831 50.61 306.707 178.386.001 44.18-20.601 86.993-58.011 120.55-3.084 2.766-3.341 7.507-.575 10.591 2.773 3.091 7.518 3.335 10.591.575 88.566-77.05 82.014-203.385-12.691-274.022z"/><path d="m413.192 389.65c-71.309 48.524-179.799 58.474-262.29 26.692-1.949-.726-4.117-.61-5.979.323-12.916 6.473-26.601 12.058-40.673 16.602-3.941 1.272-6.105 5.5-4.833 9.441 1.272 3.942 5.501 6.104 9.442 4.833 13.738-4.436 27.134-9.821 39.863-16.022 86.338 32.141 198.441 21.172 272.778-29.38 3.449-2.294 4.385-6.95 2.09-10.398-2.293-3.45-6.949-4.387-10.398-2.091z"/><path d="m71.506 441.841c-12.259 2.488-22.915 3.847-31.134 4.587 15.132-17.864 27.932-39.535 38.167-64.656 1.22-2.992.386-6.428-2.069-8.529-112.881-95.311-60.979-246.366 80.404-292.932 3.913-1.357 5.985-5.63 4.628-9.543-1.356-3.913-5.628-5.986-9.544-4.628-149.846 49.246-206.192 211.366-89.366 314.885-11.95 27.806-27.251 50.788-45.524 68.361-2.18 2.097-2.887 5.298-1.793 8.119 1.095 2.82 3.776 4.707 6.8 4.785 7.729.007 24.432-.206 52.414-5.748 4.06-.824 6.683-4.782 5.859-8.842-.825-4.059-4.784-6.683-8.842-5.859z"/><path d="m293.201 255.668c0-20.678-16.822-37.5-37.5-37.5-49.749 2.06-49.734 72.948 0 75 20.678 0 37.5-16.823 37.5-37.5zm-60 0c0-12.407 10.094-22.5 22.5-22.5 29.849 1.236 29.841 43.769 0 45-12.406 0-22.5-10.094-22.5-22.5z"/><path d="m150.701 278.168c-3.723 0-7.263-.876-10.521-2.605-3.659-1.941-8.2-.547-10.141 3.111-1.94 3.66-.548 8.199 3.111 10.14 24.42 13.323 55.393-5.288 55.05-33.146 0-20.677-16.822-37.5-37.5-37.5s-37.5 16.822-37.5 37.5c0 4.142 3.357 7.5 7.5 7.5s7.5-3.358 7.5-7.5c0-12.407 10.094-22.5 22.5-22.5 29.849 1.235 29.843 43.767.001 45z"/><path d="m398.201 255.668c0-20.678-16.822-37.5-37.5-37.5-49.749 2.06-49.734 72.948 0 75 20.678 0 37.5-16.823 37.5-37.5zm-60 0c0-12.407 10.094-22.5 22.5-22.5 29.849 1.236 29.841 43.769 0 45-12.406 0-22.5-10.094-22.5-22.5z"/></g></g></svg>