<?xml version="1.0" standalone="no"?>
<!DOCTYPE svg PUBLIC "-//W3C//DTD SVG 20010904//EN"
 "http://www.w3.org/TR/2001/REC-SVG-20010904/DTD/svg10.dtd">
<svg version="1.0" xmlns="http://www.w3.org/2000/svg"
 width="615.000000pt" height="669.000000pt" viewBox="0 0 615.000000 669.000000"
 preserveAspectRatio="xMidYMid meet">
<metadata>
Created by potrace 1.10, written by Peter Selinger 2001-2011
</metadata>
<g transform="translate(0.000000,669.000000) scale(0.050000,-0.050000)"
fill="#000000" stroke="none">
<path d="M4218 12480 c-191 -33 -380 -172 -465 -342 l-50 -100 -894 1 c-1019
2 -1006 4 -1114 -162 l-55 -85 0 -697 c0 -778 3 -797 145 -898 l65 -47 985
-10 984 -10 4 -516 c3 -446 8 -518 35 -534 18 -10 25 -19 17 -19 -9 -1 -54 23
-100 53 -63 39 -108 52 -175 50 -168 -6 -190 -6 -267 8 -249 42 -319 -295
-102 -492 45 -41 53 -43 42 -13 -12 32 -7 36 32 23 25 -8 150 -21 279 -27
l233 -13 80 -87 c71 -76 78 -92 61 -141 -13 -37 -12 -74 2 -113 32 -82 -95
-169 -247 -169 -78 0 -139 -51 -85 -72 18 -7 73 -6 122 1 112 17 117 0 10 -29
-65 -17 -92 -16 -135 8 -30 16 -84 43 -118 59 -53 24 -106 85 -118 133 -1 6
-8 24 -15 40 -39 90 -74 211 -74 257 0 37 -6 45 -22 29 -45 -45 -14 -396 40
-454 52 -55 155 -97 252 -102 58 -4 60 -7 59 -97 l-2 -93 125 12 c193 20 216
1 97 -84 l-99 -70 -55 61 c-30 33 -69 61 -86 61 -17 0 -27 7 -22 15 5 8 -30
16 -78 17 -121 4 -181 -56 -316 -312 -60 -115 -137 -259 -170 -318 l-59 -108
-337 4 c-185 3 -343 11 -349 18 -7 8 -27 55 -44 104 -73 207 -98 271 -118 295
-39 47 -1049 35 -1075 -13 -21 -39 -16 -54 191 -555 66 -158 83 -218 87 -292
1 -33 55 -35 842 -35 791 0 842 2 835 35 -9 45 -186 71 -401 58 -132 -8 -159
-4 -180 26 -21 29 -54 34 -220 29 -146 -4 -192 1 -181 18 10 18 7 18 -15 1
-35 -27 -479 -33 -479 -6 0 10 -13 13 -28 7 -17 -6 -38 7 -51 30 -12 23 -16
42 -8 42 8 0 1 11 -17 25 -38 31 -80 152 -63 182 8 13 6 16 -4 7 -21 -19 -95
161 -78 188 7 11 1 34 -13 50 -43 52 14 67 262 70 414 3 536 -17 543 -93 4
-50 7 -57 58 -133 27 -41 75 -86 106 -99 32 -13 74 -42 95 -63 29 -32 42 -35
66 -16 23 20 28 18 23 -12 -4 -20 -16 -34 -29 -31 -12 3 -22 -13 -22 -35 0
-56 14 -51 112 40 88 81 244 115 278 60 7 -11 30 -20 51 -20 54 0 49 -57 -6
-68 -154 -31 -180 -32 -158 -5 45 53 -6 52 -65 -2 -34 -30 -46 -36 -27 -13 71
84 -16 78 -110 -8 -100 -93 2 -125 172 -54 42 18 71 24 65 13 -10 -16 130 -60
308 -97 63 -13 76 -13 150 3 81 18 150 -30 118 -83 -12 -20 -19 -76 -16 -126
3 -49 6 -101 7 -115 1 -36 41 -31 41 6 0 16 12 35 26 40 19 7 25 41 21 110 -7
107 -2 112 77 74 54 -25 55 -30 26 -220 -5 -30 -1 -55 9 -55 10 0 26 47 36
105 12 75 25 103 46 98 285 -65 388 -15 509 245 192 415 220 465 227 414 7
-48 -46 -315 -78 -397 -12 -30 -11 -45 4 -45 15 0 16 -8 1 -25 -20 -24 -32
-149 -24 -255 2 -32 7 -40 15 -20 8 20 19 7 36 -40 l24 -70 26 60 c15 33 28
92 30 130 2 39 15 180 28 316 14 135 19 267 13 295 l-13 49 1541 0 c1740 0
1581 16 1510 -153 -37 -89 -37 -98 -2 -68 16 12 39 68 52 122 27 110 60 132
60 38 0 -86 -66 -205 -154 -277 -44 -37 -62 -62 -44 -62 78 0 208 179 230 318
8 51 24 82 41 82 22 0 26 -18 16 -75 -31 -179 -181 -372 -309 -398 -33 -7 -70
-26 -84 -42 -22 -27 -19 -29 24 -16 221 67 364 227 393 439 8 62 22 92 42 92
24 0 27 -18 16 -91 -41 -271 -213 -440 -509 -499 -130 -26 -131 -26 -41 -28
286 -6 579 274 579 552 0 48 9 66 33 66 27 0 30 -15 19 -100 -52 -394 -394
-629 -807 -555 -52 10 -85 8 -85 -4 0 -31 130 -47 297 -37 322 19 590 270 618
580 8 85 19 116 41 116 44 0 19 -193 -43 -329 -149 -326 -529 -498 -891 -403
-47 13 -64 12 -55 -3 7 -12 77 -33 155 -47 374 -67 811 223 867 575 5 31 15
91 21 132 20 127 57 90 45 -45 -43 -473 -560 -830 -1014 -700 -65 18 -101 13
-77 -11 6 -6 71 -21 144 -33 463 -77 904 248 979 722 24 158 53 188 53 56 0
-516 -649 -996 -1104 -817 -32 13 -59 14 -66 3 -34 -55 327 -79 500 -33 374
100 676 446 705 804 l10 129 71 0 c113 0 237 72 294 169 l50 85 0 578 1 578
47 45 c55 52 97 57 132 15 44 -53 220 11 220 79 0 27 -64 7 -95 -29 -43 -50
-69 -50 -115 0 -46 51 -72 50 -137 -1 l-53 -42 0 794 c0 909 2 899 -180 1006
l-90 53 -1845 0 -1845 0 0 253 c0 138 -5 278 -12 310 -11 55 -5 61 99 104 712
295 410 1371 -349 1243z m182 -181 c0 -10 15 -12 33 -5 23 9 29 5 19 -11 -8
-13 -3 -24 12 -26 52 -6 67 -11 121 -37 30 -14 55 -35 55 -44 0 -10 11 -12 25
-3 17 10 16 3 -3 -20 -24 -29 -24 -32 3 -22 31 12 64 -41 44 -73 -6 -9 4 -12
23 -4 24 9 30 5 20 -11 -8 -12 -4 -23 9 -23 14 0 20 -20 14 -49 -6 -31 -1 -45
11 -37 13 8 15 -1 5 -26 -30 -73 -37 -122 -13 -88 18 25 21 22 22 -15 0 -25
-9 -45 -20 -45 -12 0 -16 -21 -9 -48 7 -26 3 -54 -9 -61 -12 -7 -22 -27 -22
-44 0 -16 -11 -40 -25 -53 -30 -28 -171 -107 -151 -85 7 8 5 37 -5 64 -14 36
-13 45 4 35 15 -9 18 -5 7 12 -9 14 -18 85 -21 158 -2 89 -12 130 -27 127 -18
-4 -18 5 -2 34 16 31 15 38 -5 30 -14 -5 -42 16 -62 46 -40 60 -179 133 -243
127 -34 -3 -35 0 -10 19 25 18 22 21 -15 13 -25 -6 -50 -2 -56 8 -6 10 -20 18
-31 18 -11 0 -15 -8 -9 -18 6 -10 -3 -23 -20 -30 -18 -6 -26 -3 -19 8 7 11 3
20 -9 20 -35 0 -24 60 14 74 19 8 46 28 59 45 14 17 25 23 25 14 1 -10 14 -7
30 6 16 14 38 19 49 12 10 -6 24 -5 29 4 13 22 153 26 153 4z m-128 -297 c98
-45 160 -119 190 -230 27 -98 13 -515 -20 -598 -12 -32 -22 -178 -22 -338 l0
-282 -118 13 c-258 27 -518 -160 -473 -340 l12 -48 -979 5 c-1299 8 -1172 -90
-1172 902 l0 704 47 65 c97 137 76 134 1063 141 l890 6 0 -176 c1 -369 353
-699 679 -638 l63 12 -8 293 c-14 444 -56 490 -472 504 -293 9 -271 42 28 42
162 0 229 -8 292 -37z m-184 -105 c-10 -16 2 -19 39 -10 31 8 53 5 53 -7 0
-11 17 -20 38 -20 66 0 92 -59 102 -233 6 -92 4 -167 -4 -167 -8 0 -11 -11 -6
-25 16 -42 -26 -91 -48 -57 -10 15 -27 22 -37 15 -26 -16 -148 26 -135 47 5 8
-6 14 -25 13 -19 -2 -33 8 -30 22 3 14 -6 23 -20 20 -14 -3 -23 6 -20 20 3 14
-5 23 -17 20 -11 -3 -36 17 -55 44 -21 31 -23 43 -7 33 26 -15 -4 56 -36 88
-21 21 -21 100 -1 100 16 0 16 11 2 39 -19 35 -13 40 54 51 41 7 89 16 105 19
57 12 62 11 48 -12z m337 -1402 c59 -165 -149 -314 -439 -315 l-125 0 12 65
c20 106 87 197 175 237 98 44 362 54 377 13z m3778 -3 c77 -32 118 -74 165
-166 48 -96 49 -1626 1 -1577 -44 43 -114 39 -144 -9 -14 -22 -37 -40 -52 -40
-15 0 -43 18 -63 40 -36 39 -90 54 -90 25 0 -8 32 -40 71 -72 77 -61 67 -63
199 35 106 79 177 -1024 80 -1254 -55 -132 -350 -272 -350 -167 0 129 -100
368 -212 506 -57 70 -68 100 -68 183 l0 100 -85 9 c-47 5 -143 35 -215 66
-143 62 -570 87 -621 36 -17 -17 35 -20 198 -12 195 9 236 5 365 -37 186 -61
127 -75 -116 -27 -165 33 -197 34 -310 8 -84 -18 -293 -30 -621 -34 l-495 -6
0 -120 0 -119 491 0 c323 0 487 -7 479 -20 -16 -27 -5 -26 124 12 333 97 725
-154 793 -507 19 -99 -34 -82 -62 20 -70 258 -323 455 -585 455 -90 0 -280
-55 -280 -81 0 -25 2 -24 87 11 215 90 533 -10 665 -209 71 -108 117 -261 77
-261 -15 0 -34 25 -41 55 -66 274 -355 451 -629 385 -54 -13 -99 -33 -99 -44
0 -13 18 -15 45 -6 286 97 655 -107 655 -361 0 -59 -47 -17 -75 67 -50 149
-251 284 -424 284 -85 0 -37 -35 64 -47 161 -19 353 -186 355 -308 0 -45 -55
-26 -68 23 -16 66 -103 167 -176 204 -97 50 -85 18 21 -58 58 -42 106 -95 119
-132 l22 -62 -1537 0 -1536 0 10 127 c19 241 -167 481 -327 420 -28 -11 -27
123 1 223 3 11 -1 38 -9 60 -20 53 12 110 62 110 96 0 169 146 118 240 -14 25
-11 57 10 108 76 182 -38 427 -244 519 l-76 35 5 504 5 504 186 10 c253 14
375 103 406 296 l13 84 1825 0 c1530 0 1836 -5 1893 -28z m-4062 -1700 c25
-87 6 -278 -26 -267 -11 4 -22 69 -24 146 -2 87 -18 169 -41 219 -58 122 -57
125 8 50 34 -38 71 -105 83 -148z m-722 133 c1 40 42 46 77 11 19 -19 24 -18
24 2 0 31 132 13 179 -25 22 -18 25 -17 14 2 -10 17 -5 21 16 13 17 -7 26 -19
21 -28 -6 -9 1 -21 15 -26 14 -4 18 -16 10 -24 -8 -9 -27 -5 -43 8 -20 17 -32
18 -42 2 -7 -12 -31 -16 -53 -9 -21 7 -52 1 -68 -12 -22 -18 -29 -18 -29 0 0
13 -9 18 -20 11 -10 -6 -56 -1 -100 12 -55 17 -73 30 -56 41 14 9 19 17 10 17
-9 0 -10 11 -2 24 10 16 20 11 30 -15 13 -34 15 -35 17 -4z m534 -840 c-14
-30 -42 -93 -64 -140 -29 -64 -50 -85 -85 -85 -25 0 -41 8 -35 19 6 10 -6 24
-27 30 -44 14 -73 71 -36 71 49 1 204 85 176 95 -20 7 -15 18 20 37 70 39 79
34 51 -27z m3317 15 c8 -13 -61 -20 -194 -20 -140 1 -196 7 -176 20 40 26 354
26 370 0z m-400 -54 c-22 -6 -49 -19 -60 -30 -13 -14 3 -15 50 -3 155 38 421
18 550 -42 153 -71 110 -89 -71 -31 -154 50 -432 51 -509 3 -34 -22 -26 -23
50 -9 121 21 358 16 420 -10 36 -16 -150 -22 -685 -23 l-735 -1 0 80 0 80 515
-2 c283 -2 497 -7 475 -12z m664 -46 c57 -32 109 -68 116 -80 22 -36 -43 -21
-139 33 -52 28 -132 64 -178 78 l-83 26 90 1 c65 1 119 -15 194 -58z m158 9
c7 -28 8 -55 3 -61 -8 -8 -140 71 -173 103 -5 5 29 9 74 9 72 0 85 -7 96 -51z
m-169 -198 c142 -104 297 -366 297 -501 0 -64 -56 -28 -69 45 -35 191 -151
351 -325 449 -58 33 -106 63 -106 68 0 33 127 -5 203 -61z m151 -24 c146 -157
285 -507 201 -507 -20 0 -33 27 -40 79 -18 134 -107 296 -225 412 -95 93 -105
109 -67 109 27 0 78 -36 131 -93z m88 28 c121 -130 273 -535 202 -535 -22 0
-32 24 -55 137 -22 112 -87 239 -181 354 -98 121 -71 158 34 44z m-3748 -93
c5 -21 32 -44 60 -51 35 -9 46 -22 37 -45 -10 -28 -8 -28 22 -4 25 20 30 21
19 2 -8 -14 -4 -39 9 -56 14 -16 27 -54 29 -84 8 -116 11 -126 28 -115 10 6
23 -2 29 -18 6 -16 -2 -31 -19 -35 -16 -3 -79 -114 -139 -246 -169 -370 -193
-411 -252 -442 -78 -40 -248 -27 -236 18 6 21 -20 209 -33 243 -8 19 6 30 43
35 72 8 261 516 192 516 -9 0 -51 -108 -94 -240 -57 -177 -86 -240 -110 -240
-54 0 -54 10 -7 325 26 168 47 336 47 373 l1 69 46 -44 c60 -55 66 -55 174 17
105 70 140 75 154 22z m-453 -347 c-55 -399 -55 -400 -97 -387 -54 17 -92 -16
-68 -60 19 -36 33 -153 24 -198 -2 -11 -16 16 -31 60 -18 55 -26 66 -27 35 -2
-59 -29 -57 -70 5 -18 28 -51 50 -74 50 -25 0 -35 9 -26 23 10 16 5 18 -14 6
-70 -44 -318 -28 -280 19 12 14 16 32 8 39 -7 7 7 13 32 13 30 0 40 -8 29 -25
-9 -16 -2 -15 20 3 25 20 28 33 12 43 -13 8 36 13 109 12 89 -2 132 -11 132
-27 0 -14 13 -20 30 -13 16 6 25 19 19 28 -6 10 5 128 23 262 25 187 28 247 9
253 -16 6 -13 20 11 46 19 21 28 38 20 38 -8 0 11 22 42 49 48 42 59 45 78 20
20 -26 29 -24 70 9 66 54 67 42 19 -303z m-292 -50 c-3 -41 -7 -100 -8 -131 0
-31 -9 -52 -18 -46 -10 6 -15 -10 -12 -36 9 -80 -16 -97 -111 -79 -80 16 -83
19 -49 47 33 27 35 27 19 0 -15 -26 -13 -26 16 -3 37 30 47 53 14 33 -11 -7
-20 -2 -20 10 0 12 -11 16 -25 8 -14 -8 -18 -7 -9 3 9 10 40 19 70 21 70 4 69
2 45 47 -15 27 -14 43 2 53 16 10 18 5 7 -14 -9 -15 -10 -22 -2 -15 9 8 13 17
10 20 -2 4 7 30 22 57 25 48 25 49 -12 21 -23 -19 -19 -9 10 25 61 68 59 69
51 -21z m269 -500 c36 -184 29 -228 -32 -189 -17 10 -86 264 -86 316 0 1 21
-2 48 -7 39 -7 51 -27 70 -120z m-593 19 c16 -13 36 -17 45 -9 9 8 10 4 2 -10
-10 -18 -25 -19 -52 -5 -21 11 -63 20 -94 20 -43 1 -49 5 -26 19 36 23 86 17
125 -15z"/>
<path d="M2272 11429 c-174 -90 -125 -349 65 -349 198 0 254 276 72 352 -82
34 -67 34 -137 -3z m159 -78 c82 -82 24 -231 -91 -231 -54 0 -140 86 -140 140
0 54 86 140 140 140 23 0 64 -22 91 -49z"/>
<path d="M2854 11348 c-38 -38 44 -48 409 -48 311 0 398 6 392 25 -9 27 -775
49 -801 23z"/>
<path d="M2850 11080 c-8 -13 220 -20 669 -20 441 0 681 7 681 20 0 13 -236
20 -669 20 -424 0 -673 -7 -681 -20z"/>
<path d="M2160 11003 c-57 -57 -112 -207 -90 -243 17 -28 524 -26 541 2 25 40
-35 198 -95 249 -90 75 -277 71 -356 -8z m290 -3 c51 -19 138 -170 117 -204
-5 -9 -109 -16 -231 -16 l-221 0 13 64 c18 89 63 152 117 162 84 16 152 14
205 -6z"/>
<path d="M2850 10800 c-7 -11 -3 -20 9 -21 392 -10 1332 3 1337 20 10 28
-1328 30 -1346 1z"/>
<path d="M5228 9878 c-186 -95 -114 -378 97 -378 248 0 271 365 25 391 -44 5
-99 -1 -122 -13z m231 -116 c66 -158 -111 -293 -233 -179 -57 54 -63 176 -11
222 79 70 207 47 244 -43z"/>
<path d="M5853 9807 c-7 -8 -13 -62 -13 -120 l0 -107 1010 0 1010 0 0 120 0
120 -997 0 c-548 0 -1002 -6 -1010 -13z m1951 -98 c4 -38 4 -74 -1 -80 -5 -5
-440 -9 -966 -9 l-957 0 0 67 c0 97 -47 93 971 93 l945 0 8 -71z"/>
<path d="M5854 9387 c-8 -8 -14 -62 -14 -120 l0 -107 591 0 591 0 -6 115 -6
115 -571 5 c-315 3 -578 -1 -585 -8z m1126 -117 l0 -70 -550 0 -550 0 0 70 0
70 550 0 550 0 0 -70z"/>
<path d="M4784 8776 c-119 -32 -178 -185 -111 -288 78 -119 246 -136 327 -34
134 171 -4 378 -216 322z m163 -77 c110 -87 43 -259 -100 -259 -138 0 -201
174 -94 259 29 22 72 41 97 41 25 0 68 -19 97 -41z"/>
<path d="M5368 8693 c-6 -16 -8 -72 -4 -126 l6 -97 940 0 940 0 0 120 0 120
-936 5 c-782 5 -937 1 -946 -22z m1832 -103 l0 -70 -900 0 -900 0 0 70 0 70
900 0 900 0 0 -70z"/>
<path d="M6870 8306 c-97 -24 -74 -48 30 -32 61 9 164 14 230 12 82 -3 111 1
90 14 -30 20 -277 23 -350 6z"/>
<path d="M5193 8139 c-103 -81 -86 -270 29 -330 145 -75 298 12 298 171 0 168
-194 263 -327 159z m238 -40 c77 -64 44 -223 -53 -257 -108 -37 -198 26 -198
140 0 130 150 201 251 117z"/>
<path d="M6890 11845 c-139 -243 -148 -225 109 -225 121 0 221 5 221 12 0 18
-209 386 -220 387 -5 0 -55 -78 -110 -174z m182 -30 c32 -57 61 -111 65 -120
3 -8 -57 -15 -135 -15 -78 0 -142 5 -142 10 0 23 125 230 139 230 8 0 41 -47
73 -105z"/>
<path d="M608 10672 c-77 -77 -88 -155 -38 -252 119 -230 490 -44 379 190 -68
143 -230 173 -341 62z m254 -30 c73 -74 76 -156 9 -229 -72 -77 -171 -73 -241
11 -137 162 82 367 232 218z"/>
<path d="M1865 8771 c-162 -72 -193 -301 -58 -425 l72 -66 219 0 c204 0 223
-3 278 -49 61 -52 84 -49 84 10 0 20 20 40 47 46 195 49 246 296 91 445 l-61
58 -303 5 c-230 4 -320 -2 -369 -24z m617 -31 c142 -40 207 -213 120 -323 -58
-74 -198 -140 -244 -116 -19 10 -117 19 -217 19 -341 0 -496 185 -305 365 78
74 461 106 646 55z"/>
<path d="M1932 8590 c-42 -42 -40 -56 9 -101 54 -49 145 25 107 86 -30 48 -77
53 -116 15z"/>
<path d="M2164 8596 c-60 -60 7 -153 80 -114 48 26 46 91 -3 117 -48 26 -48
26 -77 -3z"/>
<path d="M2384 8596 c-60 -60 7 -153 80 -114 59 32 33 138 -34 138 -12 0 -33
-11 -46 -24z"/>
<path d="M3345 8526 c-34 -13 -31 -65 4 -79 49 -18 101 46 56 69 -19 10 -46
15 -60 10z"/>
<path d="M3633 8507 c-7 -8 -13 -30 -13 -50 0 -47 71 -50 89 -4 16 44 -43 86
-76 54z"/>
<path d="M3411 8408 c-14 -56 16 -108 61 -108 38 0 36 33 -2 47 -22 9 -27 27
-18 63 7 28 4 50 -8 50 -11 0 -26 -23 -33 -52z"/>
<path d="M3411 8242 c-29 -47 102 -86 199 -59 98 27 87 54 -17 42 -48 -5 -106
1 -129 13 -23 12 -46 14 -53 4z"/>
<path d="M5079 7106 c-1 -9 0 -119 1 -244 2 -168 -5 -233 -24 -244 -16 -10 -6
-15 29 -12 196 15 332 368 162 422 -23 7 -41 29 -40 48 2 24 -15 36 -62 40
-36 4 -66 -1 -66 -10z m161 -215 c0 -27 -9 -54 -20 -61 -12 -7 -20 13 -20 49
0 33 9 61 20 61 11 0 20 -22 20 -49z"/>
<path d="M4753 7087 c-7 -8 -11 -100 -9 -205 l3 -192 13 160 13 160 7 -140 c4
-95 9 -116 15 -65 4 41 16 75 26 75 11 0 19 10 19 21 0 12 -9 16 -20 9 -11 -7
-20 2 -20 20 0 21 9 27 25 17 17 -10 16 -4 -2 19 -26 31 -18 43 23 36 9 -1 13
13 10 32 -5 27 11 36 73 41 127 10 108 25 -32 25 -72 0 -136 -6 -144 -13z"/>
<path d="M7950 6748 c-168 -343 -623 -575 -998 -510 -157 28 -165 27 -136 -2
34 -34 354 -45 489 -17 266 55 604 315 685 527 51 135 26 136 -40 2z"/>
<path d="M4497 6615 c-9 -17 -8 -192 2 -183 10 11 12 18 19 68 1 12 25 17 52
12 29 -6 46 -1 39 9 -6 11 -2 19 10 19 20 0 27 -23 16 -55 -3 -8 -24 -14 -47
-13 -23 1 -41 -10 -41 -25 0 -19 7 -21 25 -5 15 12 35 16 46 9 27 -16 51 28
54 101 3 65 -78 86 -150 40 -19 -13 -24 -11 -14 5 8 13 9 23 3 23 -6 0 -12 -2
-14 -5z m113 -35 c19 15 29 13 37 -11 7 -18 4 -26 -7 -19 -11 7 -31 6 -45 -3
-54 -34 -99 -24 -60 13 19 19 38 26 42 16 4 -10 18 -8 33 4z"/>
<path d="M4705 6597 c-15 -15 -16 -38 -2 -75 11 -28 19 -54 18 -57 -6 -24 4
-26 28 -6 16 14 38 19 49 12 10 -6 25 -3 32 9 7 11 21 20 32 20 11 0 14 -10 6
-23 -10 -16 -5 -18 14 -6 15 10 50 18 78 18 41 1 49 11 52 63 2 57 -105 84
-192 48 -5 -3 -23 -6 -38 -7 -15 -2 -31 -20 -34 -40 -3 -20 -11 -42 -18 -49
-6 -7 -7 16 -1 52 13 70 10 75 -24 41z m287 -49 c1 -26 -11 -41 -35 -43 -24
-2 -33 6 -24 21 11 17 6 17 -16 -1 -17 -13 -36 -19 -43 -12 -7 7 -25 2 -40
-10 -15 -12 -33 -17 -40 -10 -7 7 -28 0 -47 -15 -31 -26 -31 -24 -5 17 15 25
37 45 48 45 11 0 7 10 -10 22 -25 19 -25 20 4 11 19 -6 39 -5 44 3 22 36 162
12 164 -28z"/>
<path d="M5153 6590 c-8 -21 -26 -29 -51 -21 -23 8 -42 1 -49 -18 -13 -35 18
-62 37 -31 7 11 21 20 32 20 11 0 14 -10 6 -23 -9 -14 -5 -18 9 -9 29 18 30
-13 2 -41 -14 -14 -12 -20 7 -20 18 0 27 20 26 51 -2 47 5 52 73 52 42 0 72
-8 68 -20 -4 -11 -24 -18 -45 -16 -40 3 -72 -31 -55 -59 6 -9 23 -7 38 6 15
12 36 17 47 10 10 -6 24 -4 30 5 5 9 58 16 116 14 104 -3 165 19 145 51 -5 9
-1 22 11 29 18 11 28 -14 23 -53 -1 -7 20 -11 48 -8 53 6 62 -8 26 -44 -16
-16 -13 -21 14 -17 19 3 38 21 41 40 6 46 13 51 69 62 63 12 85 -30 43 -78
-22 -25 -24 -33 -6 -22 21 12 26 8 16 -16 -7 -18 -5 -37 4 -43 9 -5 15 14 14
43 -2 50 4 54 93 57 100 3 111 -5 70 -51 -21 -24 -20 -24 11 -1 20 15 31 39
26 53 -7 18 10 24 54 22 48 -3 62 4 57 26 -3 17 1 23 9 15 21 -21 25 -135 4
-123 -9 6 -11 19 -5 29 6 11 1 19 -12 19 -13 0 -18 -13 -12 -29 6 -17 -2 -43
-18 -59 -26 -26 -25 -29 9 -27 22 2 34 13 27 24 -7 12 3 8 23 -8 32 -26 38 92
13 239 -1 6 -10 -3 -21 -20 -11 -16 -20 -20 -20 -7 0 21 -165 22 -305 1 -30
-5 -55 1 -55 13 0 11 -13 3 -30 -18 -29 -37 -31 -38 -58 -3 -21 27 -31 30 -38
10 -9 -20 -16 -20 -32 4 -15 20 -21 22 -22 5 0 -14 -10 -25 -21 -25 -12 0 -17
7 -11 17 6 9 -29 15 -76 15 -79 -2 -86 -6 -84 -52 2 -38 -8 -51 -42 -52 -25
-1 -40 5 -34 15 6 10 19 12 29 6 11 -6 16 9 11 35 -4 27 -19 43 -35 39 -15 -4
-38 -9 -51 -11 -14 -2 -31 -10 -39 -18 -23 -23 -50 -16 -35 9 9 14 5 18 -9 9
-13 -8 -23 -3 -23 12 -1 19 -6 18 -20 -4 -16 -25 -23 -25 -37 -3 -14 21 -20
20 -30 -7z m353 -25 c-12 -33 -11 -33 27 0 43 37 60 -21 18 -60 -10 -8 -11 -4
-3 10 18 31 -12 33 -41 4 -18 -18 -25 45 -10 76 12 22 19 -3 9 -30z m514 9 c0
-10 14 -8 30 6 26 22 29 20 19 -12 -12 -36 -11 -36 17 -3 15 19 34 35 41 35 6
0 7 -16 1 -35 -10 -31 -8 -31 19 2 30 37 31 37 28 -3 -2 -28 -15 -38 -43 -33
-21 5 -53 -3 -69 -16 -24 -20 -28 -20 -16 0 16 26 -10 35 -34 11 -33 -32 -93
-23 -114 17 -13 23 -15 37 -5 31 10 -6 29 -4 43 4 34 21 83 19 83 -4z m-280
-23 c6 -9 -7 -20 -29 -23 -45 -7 -76 8 -62 30 12 20 78 15 91 -7z"/>
<path d="M7710 6349 c-249 -178 -665 -262 -875 -179 -19 8 -35 5 -35 -6 0
-169 936 41 1008 227 14 39 17 39 -98 -42z"/>
<path d="M419 6340 c0 -5 0 -566 1 -1245 l1 -1235 -210 0 c-177 0 -211 -5
-211 -31 0 -27 49 -29 425 -15 234 9 543 16 686 16 l262 0 -9 47 c-5 25 2 81
16 123 45 137 -117 285 -238 218 -90 -50 -75 -198 20 -198 21 0 38 14 38 30 0
17 -9 30 -20 30 -11 0 -20 18 -20 40 0 46 76 56 116 16 36 -36 29 -145 -13
-183 -141 -128 -353 93 -261 273 76 148 306 151 402 5 65 -100 65 -100 131
-52 104 77 425 100 425 30 0 -56 467 -93 679 -53 122 22 157 9 209 -77 90
-153 20 -256 -184 -273 -111 -9 -152 -21 -172 -50 -59 -84 -202 -60 -202 34 0
22 -9 40 -20 41 -11 0 -17 -11 -14 -25 6 -28 -177 -37 -291 -14 -114 23 -124
191 -19 305 42 45 42 47 5 40 -96 -18 -153 -185 -103 -300 20 -46 -159 -69
-335 -43 -70 10 -145 12 -166 4 -20 -9 -28 -16 -17 -18 11 -1 2 -9 -20 -18
-46 -17 -254 -5 -242 15 5 7 -38 15 -95 17 l-103 5 60 -39 c33 -21 92 -43 130
-49 39 -7 97 -21 130 -31 191 -58 1012 -88 1400 -51 66 7 174 16 240 22 66 6
147 19 180 29 33 10 92 24 130 30 85 15 182 73 142 86 -15 5 -59 -1 -99 -13
-141 -42 -256 -44 -302 -4 -65 57 -107 56 1969 39 3266 -26 4050 -23 4050 12
0 26 -168 30 -1390 30 l-1390 0 0 1240 0 1240 -1335 0 c-734 1 -2017 3 -2850
5 -833 3 -1515 1 -1516 -5z m3901 -1261 c0 -649 -4 -1179 -9 -1179 -6 0 -46
19 -91 42 -44 23 -93 37 -109 31 -17 -6 -34 -4 -40 6 -6 9 -47 16 -91 14 -44
-2 -80 6 -80 17 0 11 -8 8 -18 -8 -13 -20 -38 -23 -92 -13 -46 8 -69 6 -62 -6
7 -11 -4 -17 -23 -14 -19 4 -32 18 -29 32 5 19 -1 20 -20 5 -26 -21 -139 -19
-449 9 -166 15 -217 34 -170 63 19 12 14 20 -19 28 -26 7 -40 18 -33 26 7 7 0
26 -16 42 -19 19 -27 58 -23 112 7 79 1 95 -62 164 -15 17 -25 45 -23 65 10
125 -3 237 -30 257 -17 12 -31 33 -31 45 0 13 -10 23 -21 23 -12 0 -16 9 -9
20 7 11 -6 20 -29 20 -22 0 -41 8 -41 19 0 10 -18 24 -40 31 -22 7 -40 27 -40
45 0 28 -4 27 -27 -4 -16 -22 -40 -33 -59 -25 -20 7 -29 3 -23 -12 28 -72
-178 -111 -252 -48 -22 19 -52 34 -68 34 -16 0 -34 9 -40 19 -7 11 -28 13 -47
6 -30 -11 -31 -8 -7 21 16 20 19 34 7 34 -12 0 -27 -18 -34 -40 -7 -22 -20
-40 -28 -40 -27 0 -122 -90 -122 -116 0 -13 -7 -24 -16 -24 -9 0 -18 -34 -21
-75 -11 -168 -29 -225 -72 -225 -15 0 -32 -15 -39 -33 -7 -18 -18 -28 -24 -22
-6 6 -66 -2 -134 -18 -124 -29 -254 2 -254 61 0 10 -6 13 -13 6 -7 -7 -31 -2
-55 11 -52 29 -149 37 -163 13 -6 -10 -27 -18 -47 -18 -19 0 -71 -35 -114 -78
-93 -94 -134 -142 -118 -142 6 0 1 -20 -12 -45 -14 -24 -25 -80 -26 -124 -2
-77 -5 -81 -76 -92 -126 -21 -120 -76 -116 1063 3 1222 -1 1097 38 1100 223
16 1595 8 1607 -10 10 -16 14 -15 15 2 0 18 109 23 426 22 234 0 470 5 525 12
224 28 269 31 269 16 0 -9 47 -14 104 -11 57 2 121 -5 142 -16 23 -13 34 -13
27 -1 -8 12 58 18 177 16 104 -2 192 1 195 7 9 20 145 76 160 67 8 -4 15 -539
15 -1187z m1555 1051 l44 -11 1 -1001 c0 -551 5 -1010 11 -1020 6 -10 -5 -18
-25 -18 -28 -1 -30 -4 -8 -18 54 -34 -48 -40 -744 -40 -605 0 -694 4 -673 29
18 21 18 29 1 29 -26 0 -31 2038 -6 2043 130 25 1295 31 1399 7z m-3683 -1395
c23 -44 39 -54 71 -44 35 11 39 7 27 -30 -17 -54 21 -101 80 -101 62 0 79 54
26 82 -36 19 -40 18 -30 -10 14 -36 -16 -44 -38 -9 -20 33 44 73 100 62 47 -9
55 -2 131 95 52 67 103 36 135 -82 13 -48 29 -107 36 -130 10 -32 3 -45 -28
-53 -23 -6 -42 -21 -42 -33 0 -28 33 -29 50 -2 7 11 23 20 36 20 13 -1 2 -19
-26 -42 -48 -40 -48 -41 -6 -32 27 6 57 -5 78 -28 19 -21 24 -38 12 -38 -13 0
-19 -11 -14 -25 36 -101 -757 -169 -812 -70 -11 19 -34 35 -51 35 -25 0 -27 6
-9 28 18 22 18 30 -2 37 -20 7 -17 20 11 51 20 23 49 36 65 31 15 -6 28 -2 28
9 0 11 -15 25 -33 32 -18 7 -27 19 -20 25 6 7 26 1 43 -13 17 -14 37 -19 45
-11 8 7 -7 30 -33 50 -27 20 -39 41 -27 48 11 7 25 46 32 88 27 169 96 194
165 60z m1031 -755 c-36 -9 -90 -8 -120 0 -40 13 -24 16 67 16 102 0 110 -2
53 -16z"/>
<path d="M2092 4729 c-20 -54 -14 -69 28 -69 46 0 53 44 12 78 -21 18 -30 16
-40 -9z"/>
<path d="M2582 4723 c-22 -41 -11 -63 31 -63 31 0 37 72 8 89 -10 7 -28 -5
-39 -26z"/>
<path d="M2165 4447 c-14 -6 -25 -19 -25 -30 0 -28 105 -12 115 18 8 25 -41
31 -90 12z"/>
<path d="M2480 4439 c0 -29 53 -46 94 -30 30 11 31 16 5 32 -39 25 -99 24 -99
-2z"/>
<path d="M2328 4389 c9 -24 2 -29 -28 -19 -47 15 -53 -14 -10 -50 23 -19 37
-19 58 -1 20 16 32 17 42 1 10 -16 22 -15 42 1 37 31 36 66 -2 52 -18 -7 -30
0 -30 18 0 16 -18 29 -42 29 -30 0 -39 -9 -30 -31z"/>
<path d="M2060 4371 c0 -30 74 -63 95 -43 12 13 -53 70 -80 71 -8 1 -15 -12
-15 -28z"/>
<path d="M2605 4374 c-49 -22 -61 -54 -20 -54 38 1 81 33 72 55 -4 13 -23 13
-52 -1z"/>
<path d="M7440 6115 c-91 -35 -156 -42 -374 -43 -310 -2 -329 -36 -23 -39 231
-3 412 30 481 88 57 47 53 46 -84 -6z"/>
<path d="M6800 5985 c0 -42 361 -63 420 -25 21 13 -20 19 -132 20 -90 0 -191
6 -225 13 -37 7 -63 4 -63 -8z"/>
<path d="M2064 3957 c5 -15 50 -33 100 -40 126 -18 175 -47 162 -97 -6 -22 -1
-40 10 -40 12 0 25 16 30 35 8 31 10 31 12 -2 2 -31 7 -34 32 -13 24 20 30 20
30 0 0 -20 6 -20 30 0 35 29 21 63 -21 47 -16 -6 -29 -2 -29 10 0 23 123 63
194 63 45 0 80 33 57 55 -6 7 -79 -7 -160 -31 -132 -39 -155 -40 -214 -16
-109 45 -244 62 -233 29z"/>
</g>
</svg>
